# xmcd CD database file
#
# Track frame offsets:
#	255
#	9681
#	19997
#	29326
#	39169
#	50347
#	59174
#	69103
#	81303
#	90861
#	101248
#	113804
#	124428
#	137238
#	148385
#	159425
#
# Disc length: 2276 seconds
#
# Revision: 0
# Processed by: cddbd v1.5.1PL0 Copyright (c) Steve Scherf et al.
# Submitted via: Feurio! 1.68 - http://www.feurio.com
#
DISCID=e108e110
DTITLE=Bob Luman - More Of That Rocker
DYEAR=1979
DGENRE=Country
TTITLE0=??? - Let's Think About Living
TTITLE1=??? - Boom Boom Boom Yippy Yi Ya
TTITLE2=??? - Envy
TTITLE3=??? - Hey Joe
TTITLE4=??? - You've Got Everything
TTITLE5=??? - Love Creator
TTITLE6=??? - Louisiana Man
TTITLE7=??? - The Fool
TTITLE8=??? - My Baby Walks All Over Me
TTITLE9=??? - Old Friends
TTITLE10=??? - Big River Rose
TTITLE11=??? - Throwing Kisses
TTITLE12=??? - The Great Snowman
TTITLE13=??? - Pig Latin Song
TTITLE14=??? - Oh Lonesome Me
TTITLE15=??? - Bad Bad Day
EXTD=Songwriter: (c)1979 Bear Family Records * Katalog: BFX 15039\r\n
EXTT0=Songwriter: Boudleaux/Bryant\r\n
EXTT1=Songwriter: Unknown\r\n
EXTT2=Songwriter: John D. Loudermilk\r\n
EXTT3=Songwriter: Boudleaux/Bryant\r\n
EXTT4=Songwriter: F. and B. Bryant\r\n
EXTT5=Songwriter: Unknown\r\n
EXTT6=Songwriter: Doug Kershaw\r\n
EXTT7=Songwriter: Hazlewood/Ford (Debra Music Co.)\r\n
EXTT8=Songwriter: Billy Mize (Lee Tal Publ. Co.)\r\n
EXTT9=Songwriter: F and B. Bryant\r\n
EXTT10=Songwriter: B. and F. Bryant\r\n
EXTT11=Songwriter: John D. Loudermilk\r\n
EXTT12=Songwriter: John D. Loudermilk\r\n
EXTT13=Songwriter: John D. Loudermilk\r\n
EXTT14=Songwriter: Don Gibson\r\n
EXTT15=Songwriter: Don Gibson\r\n
PLAYORDER=
